<svg width="18" height="18" viewBox="0 0 18 18" fill="none" xmlns="http://www.w3.org/2000/svg">
<mask id="mask0_76_1124" style="mask-type:luminance" maskUnits="userSpaceOnUse" x="2" y="0" width="14" height="18">
<path d="M9 16.5C12.0881 16.5 14.625 14.0527 14.625 10.9117C14.625 10.1407 14.5856 9.31425 14.1581 8.0295C13.7306 6.74475 13.6447 6.579 13.1929 5.7855C12.9998 7.40438 11.9666 8.07938 11.7041 8.28113C11.7041 8.07113 11.0794 5.751 10.1318 4.36238C9.20138 3 7.93612 2.10637 7.19437 1.5C7.19437 2.65125 6.87075 4.36275 6.40687 5.235C5.94337 6.10687 5.85637 6.13875 5.277 6.7875C4.69762 7.43625 4.43213 7.63688 3.94763 8.42438C3.46313 9.21187 3.375 10.2607 3.375 11.0317C3.375 14.1727 5.91188 16.5 9 16.5Z" fill="#555555" stroke="white" stroke-width="2" stroke-linejoin="round"/>
</mask>
<g mask="url(#mask0_76_1124)">
<path d="M0 9.15527e-05H18V18.0001H0V9.15527e-05Z" fill="#FF7171"/>
</g>
</svg>
