<svg width="25" height="24" viewBox="0 0 25 24" fill="none" xmlns="http://www.w3.org/2000/svg">
<g clip-path="url(#clip0_76_322)">
<path d="M12.5 4.75C14.27 4.75 15.855 5.36 17.105 6.55L20.53 3.125C18.45 1.19 15.735 0 12.5 0C7.81 0 3.755 2.69 1.78 6.61L5.77 9.705C6.715 6.86 9.37 4.75 12.5 4.75Z" fill="#EA4335"/>
<path d="M23.99 12.275C23.99 11.49 23.915 10.73 23.8 10H12.5V14.51H18.97C18.68 15.99 17.84 17.25 16.58 18.1L20.445 21.1C22.7 19.01 23.99 15.92 23.99 12.275Z" fill="#4285F4"/>
<path d="M5.765 14.295C5.525 13.57 5.385 12.8 5.385 12C5.385 11.2 5.52 10.43 5.765 9.70499L1.775 6.60999C0.96 8.22999 0.5 10.06 0.5 12C0.5 13.94 0.96 15.77 1.78 17.39L5.765 14.295Z" fill="#FBBC05"/>
<path d="M12.5 24C15.74 24 18.465 22.935 20.445 21.095L16.58 18.095C15.505 18.82 14.12 19.245 12.5 19.245C9.37 19.245 6.715 17.135 5.765 14.29L1.775 17.385C3.755 21.31 7.81 24 12.5 24Z" fill="#34A853"/>
</g>
<defs>
<clipPath id="clip0_76_322">
<rect width="24" height="24" fill="white" transform="translate(0.5)"/>
</clipPath>
</defs>
</svg>
