<svg width="157" height="58" viewBox="0 0 157 58" fill="none" xmlns="http://www.w3.org/2000/svg">
<path d="M27.0691 51.5H16.1941C13.0691 51.5 10.3087 50.5 7.91284 48.5C6.89201 47.6458 6.01701 46.6667 5.28784 45.5625V6.6875H7.91284V44.7188C9.97534 47.4896 12.7358 48.875 16.1941 48.875H27.0691V51.5ZM32.8191 48.875H51.9753V51.5H32.0066H30.1941V12.6562C30.9233 11.5312 31.7983 10.5417 32.8191 9.6875C35.2149 7.6875 37.9649 6.6875 41.0691 6.6875H51.3816V9.3125H41.1003C37.642 9.3125 34.8816 10.6979 32.8191 13.4688V25.8438H46.5378V28.4688H32.8191V48.875ZM60.1003 26H76.5378V13.125C74.4753 10.375 71.7358 9 68.3191 9C64.8816 9 62.142 10.375 60.1003 13.125V26ZM68.3191 6.375C71.4233 6.375 74.1628 7.36458 76.5378 9.34375C77.5587 10.1979 78.4337 11.1771 79.1628 12.2812V51.5H76.5378V28.5938H60.1003V51.5H57.4753V12.2812C58.2045 11.1771 59.0795 10.1979 60.1003 9.34375C62.4753 7.36458 65.2149 6.375 68.3191 6.375ZM87.0691 48.875H98.1316C99.8191 46.75 101.163 43.9062 102.163 40.3438C103.163 36.7396 103.652 32.9896 103.632 29.0938C103.569 20.8646 101.736 14.2708 98.1316 9.3125H87.0691V48.875ZM99.4753 6.6875C100.788 8.16667 101.944 9.96875 102.944 12.0938C105.298 17.0104 106.475 22.6771 106.475 29.0938C106.475 35.5104 105.298 41.1771 102.944 46.0938C101.944 48.2188 100.788 50.0208 99.4753 51.5H84.4441V8.5H84.4753V6.6875H99.4753Z" fill="white"/>
<path d="M146.662 11.1824C147.669 8.16321 144.202 7.6041 143.308 8.72232L120.831 40.9475C118.595 43.6312 115.687 40.3681 117.029 38.4671L141.854 2.68395C142.86 1.56579 144.873 1.23029 147.892 2.68396L150.017 3.87374C154.825 6.66932 156.055 9.65744 155.161 12.5446L131.678 47.5853C126.199 52.1298 122.732 45.7559 124.822 42.4928L146.662 11.1824Z" stroke="white" stroke-width="2.5" stroke-linejoin="round"/>
<path d="M146.662 11.1824C147.669 8.16321 144.202 7.6041 143.308 8.72232L120.831 40.9475C118.595 43.6312 115.687 40.3681 117.029 38.4671L141.854 2.68395C142.86 1.56579 144.873 1.23029 147.892 2.68396L150.017 3.87374C154.825 6.66932 156.055 9.65744 155.161 12.5446L131.678 47.5853C126.199 52.1298 122.732 45.7559 124.822 42.4928L146.662 11.1824Z" stroke="white" stroke-width="2.5" stroke-linejoin="round"/>
<path d="M114.696 49.1865C114.875 46.145 116.858 46.8755 117.827 47.621C118.051 47.8074 119.169 48.6274 121.853 50.4166C124.537 52.2058 122.971 53.4731 121.853 53.8831C121.555 54.0322 120.287 54.6435 117.604 55.8959C114.92 57.1483 114.473 55.0759 114.584 53.8831C114.584 53.6222 114.607 52.3176 114.696 49.1865Z" stroke="white" stroke-width="2.5"/>
</svg>
