<svg width="156" height="56" viewBox="0 0 156 56" fill="none" xmlns="http://www.w3.org/2000/svg">
<path d="M27.0691 50.5H16.1941C13.0691 50.5 10.3087 49.5 7.91283 47.5C6.89199 46.6458 6.01699 45.6667 5.28783 44.5625V5.6875H7.91283V43.7188C9.97533 46.4896 12.7357 47.875 16.1941 47.875H27.0691V50.5ZM32.8191 47.875H51.9753V50.5H32.0066H30.1941V11.6562C30.9232 10.5312 31.7982 9.54167 32.8191 8.6875C35.2149 6.6875 37.9649 5.6875 41.0691 5.6875H51.3816V8.3125H41.1003C37.642 8.3125 34.8816 9.69792 32.8191 12.4688V24.8438H46.5378V27.4688H32.8191V47.875ZM60.1003 25H76.5378V12.125C74.4753 9.375 71.7357 8 68.3191 8C64.8816 8 62.142 9.375 60.1003 12.125V25ZM68.3191 5.375C71.4232 5.375 74.1628 6.36458 76.5378 8.34375C77.5587 9.19792 78.4337 10.1771 79.1628 11.2812V50.5H76.5378V27.5938H60.1003V50.5H57.4753V11.2812C58.2045 10.1771 59.0795 9.19792 60.1003 8.34375C62.4753 6.36458 65.2149 5.375 68.3191 5.375ZM87.0691 47.875H98.1316C99.8191 45.75 101.163 42.9062 102.163 39.3438C103.163 35.7396 103.652 31.9896 103.632 28.0938C103.569 19.8646 101.736 13.2708 98.1316 8.3125H87.0691V47.875ZM99.4753 5.6875C100.788 7.16667 101.944 8.96875 102.944 11.0938C105.298 16.0104 106.475 21.6771 106.475 28.0938C106.475 34.5104 105.298 40.1771 102.944 45.0938C101.944 47.2188 100.788 49.0208 99.4753 50.5H84.4441V7.5H84.4753V5.6875H99.4753Z" fill="black"/>
<path d="M146.662 10.1824C147.669 7.16321 144.202 6.6041 143.307 7.72232L120.831 39.9475C118.595 42.6312 115.687 39.3681 117.029 37.4671L141.854 1.68395C142.86 0.565795 144.873 0.230287 147.892 1.68396L150.017 2.87374C154.825 5.66932 156.055 8.65744 155.161 11.5446L131.678 46.5853C126.199 51.1298 122.732 44.7559 124.822 41.4928L146.662 10.1824Z" stroke="black" stroke-width="2.5" stroke-linejoin="round"/>
<path d="M146.662 10.1824C147.669 7.16321 144.202 6.6041 143.307 7.72232L120.831 39.9475C118.595 42.6312 115.687 39.3681 117.029 37.4671L141.854 1.68395C142.86 0.565795 144.873 0.230287 147.892 1.68396L150.017 2.87374C154.825 5.66932 156.055 8.65744 155.161 11.5446L131.678 46.5853C126.199 51.1298 122.732 44.7559 124.822 41.4928L146.662 10.1824Z" stroke="black" stroke-width="2.5" stroke-linejoin="round"/>
<path d="M114.696 48.1865C114.875 45.145 116.858 45.8755 117.827 46.621C118.051 46.8074 119.169 47.6274 121.853 49.4166C124.537 51.2058 122.971 52.4731 121.853 52.8831C121.555 53.0322 120.287 53.6435 117.604 54.8959C114.92 56.1483 114.473 54.0759 114.584 52.8831C114.584 52.6222 114.607 51.3176 114.696 48.1865Z" stroke="black" stroke-width="2.5"/>
</svg>
